<?xml version="1.0" encoding="UTF-8" standalone="no"?>
<svg
   width="150"
   height="24"
   viewBox="0 0 150 24"
   fill="none"
   version="1.1"
   id="svg53"
   sodipodi:docname="Drivoxe..svg"
   inkscape:version="1.2.1 (9c6d41e4, 2022-07-14)"
   xmlns:inkscape="http://www.inkscape.org/namespaces/inkscape"
   xmlns:sodipodi="http://sodipodi.sourceforge.net/DTD/sodipodi-0.dtd"
   xmlns="http://www.w3.org/2000/svg"
   xmlns:svg="http://www.w3.org/2000/svg">
  <defs
     id="defs57" />
  <sodipodi:namedview
     id="namedview55"
     pagecolor="#ffffff"
     bordercolor="#000000"
     borderopacity="0.25"
     inkscape:showpageshadow="2"
     inkscape:pageopacity="0.0"
     inkscape:pagecheckerboard="0"
     inkscape:deskcolor="#d1d1d1"
     showgrid="false"
     inkscape:zoom="8.9333333"
     inkscape:cx="75"
     inkscape:cy="12.089552"
     inkscape:window-width="1440"
     inkscape:window-height="622"
     inkscape:window-x="0"
     inkscape:window-y="205"
     inkscape:window-maximized="0"
     inkscape:current-layer="svg53" />
  <mask
     id="path-1-outside-1_78_204"
     maskUnits="userSpaceOnUse"
     x="0"
     y="0.919922"
     width="150"
     height="23"
     fill="black">
    <rect
       fill="white"
       y="0.919922"
       width="150"
       height="23"
       id="rect2" />
    <path
       d="M10.33 2.27992C12.43 2.27992 14.19 2.53992 15.61 3.05992C17.03 3.57992 18.16 4.28992 19 5.18992C19.84 6.06992 20.44 7.08992 20.8 8.24992C21.18 9.40992 21.37 10.6299 21.37 11.9099C21.37 13.2099 21.17 14.4499 20.77 15.6299C20.37 16.8099 19.73 17.8599 18.85 18.7799C17.99 19.6799 16.86 20.3999 15.46 20.9399C14.06 21.4599 12.35 21.7199 10.33 21.7199H1V2.27992H10.33ZM4.42 18.7199H10.3C11.78 18.7199 13.01 18.5299 13.99 18.1499C14.97 17.7699 15.75 17.2599 16.33 16.6199C16.91 15.9599 17.32 15.2299 17.56 14.4299C17.8 13.6099 17.92 12.7699 17.92 11.9099C17.92 11.0499 17.8 10.2299 17.56 9.44992C17.32 8.64992 16.91 7.93992 16.33 7.31992C15.75 6.67992 14.97 6.17992 13.99 5.81992C13.01 5.43992 11.78 5.24992 10.3 5.24992H4.42V18.7199Z"
       id="path4" />
    <path
       d="M25.2285 21.7199V2.27992H36.7185C38.1585 2.27992 39.4085 2.48992 40.4685 2.90992C41.5285 3.30992 42.3485 3.93992 42.9285 4.79992C43.5085 5.63992 43.7985 6.71992 43.7985 8.03992C43.7985 8.91992 43.6485 9.67992 43.3485 10.3199C43.0485 10.9399 42.6285 11.4499 42.0885 11.8499C41.5485 12.2499 40.9185 12.5599 40.1985 12.7799C39.4985 12.9999 38.7485 13.1399 37.9485 13.1999L37.6485 12.9899C38.9285 13.0099 39.9885 13.1299 40.8285 13.3499C41.6685 13.5499 42.3085 13.9399 42.7485 14.5199C43.1885 15.0799 43.4085 15.9099 43.4085 17.0099V21.7199H40.0185V17.1899C40.0185 16.4299 39.8785 15.8399 39.5985 15.4199C39.3385 14.9799 38.8785 14.6799 38.2185 14.5199C37.5785 14.3399 36.6585 14.2499 35.4585 14.2499H28.6485V21.7199H25.2285ZM28.6485 11.4599H36.7185C37.9185 11.4599 38.8285 11.1599 39.4485 10.5599C40.0685 9.95992 40.3785 9.16992 40.3785 8.18992C40.3785 7.24992 40.0685 6.52992 39.4485 6.02992C38.8285 5.50992 37.9185 5.24992 36.7185 5.24992H28.6485V11.4599Z"
       id="path6" />
    <path
       d="M48.5329 2.27992H51.9529V21.7199H48.5329V2.27992Z"
       id="path8" />
    <path
       d="M63.5214 21.7199L55.4514 2.27992H59.1714L66.1014 19.6499H64.9914L71.8914 2.27992H75.5514L67.5714 21.7199H63.5214Z"
       id="path10" />
    <path
       d="M87.8477 22.0799C85.5677 22.0799 83.5777 21.6699 81.8777 20.8499C80.1977 20.0299 78.8877 18.8699 77.9477 17.3699C77.0277 15.8699 76.5677 14.0799 76.5677 11.9999C76.5677 9.91992 77.0277 8.12992 77.9477 6.62992C78.8877 5.10992 80.1977 3.94992 81.8777 3.14992C83.5777 2.32992 85.5677 1.91992 87.8477 1.91992C90.1477 1.91992 92.1377 2.32992 93.8177 3.14992C95.4977 3.94992 96.7977 5.10992 97.7177 6.62992C98.6577 8.12992 99.1277 9.91992 99.1277 11.9999C99.1277 14.0799 98.6577 15.8699 97.7177 17.3699C96.7977 18.8699 95.4977 20.0299 93.8177 20.8499C92.1377 21.6699 90.1477 22.0799 87.8477 22.0799ZM87.8477 19.0799C89.3677 19.0799 90.7077 18.8199 91.8677 18.2999C93.0277 17.7799 93.9377 16.9999 94.5977 15.9599C95.2777 14.8999 95.6177 13.5799 95.6177 11.9999C95.6177 10.4399 95.2777 9.13992 94.5977 8.09992C93.9377 7.03992 93.0277 6.24992 91.8677 5.72992C90.7077 5.18992 89.3677 4.91992 87.8477 4.91992C86.3477 4.91992 85.0077 5.18992 83.8277 5.72992C82.6477 6.24992 81.7177 7.03992 81.0377 8.09992C80.3577 9.13992 80.0177 10.4399 80.0177 11.9999C80.0177 13.5799 80.3577 14.8999 81.0377 15.9599C81.7177 16.9999 82.6477 17.7799 83.8277 18.2999C85.0077 18.8199 86.3477 19.0799 87.8477 19.0799Z"
       id="path12" />
    <path
       d="M115.701 2.27992H119.751L111.291 12.8699L111.201 12.9599L104.721 21.7199H100.641L109.311 10.5599L109.401 10.4999L115.701 2.27992ZM105.021 2.27992L111.171 10.5299L111.201 10.5899L119.811 21.7199H115.491L109.161 12.8699L109.101 12.8099L100.941 2.27992H105.021Z"
       id="path14" />
    <path
       d="M126.764 13.4399V18.7799H140.414V21.7199H123.344V2.27992H140.384V5.21992H126.764V10.6199H137.924V13.4399H126.764Z"
       id="path16" />
    <path
       d="M148.065 18.4799V21.7199H144.075V18.4799H148.065Z"
       id="path18" />
  </mask>
  <path
     d="M10.33 2.27992C12.43 2.27992 14.19 2.53992 15.61 3.05992C17.03 3.57992 18.16 4.28992 19 5.18992C19.84 6.06992 20.44 7.08992 20.8 8.24992C21.18 9.40992 21.37 10.6299 21.37 11.9099C21.37 13.2099 21.17 14.4499 20.77 15.6299C20.37 16.8099 19.73 17.8599 18.85 18.7799C17.99 19.6799 16.86 20.3999 15.46 20.9399C14.06 21.4599 12.35 21.7199 10.33 21.7199H1V2.27992H10.33ZM4.42 18.7199H10.3C11.78 18.7199 13.01 18.5299 13.99 18.1499C14.97 17.7699 15.75 17.2599 16.33 16.6199C16.91 15.9599 17.32 15.2299 17.56 14.4299C17.8 13.6099 17.92 12.7699 17.92 11.9099C17.92 11.0499 17.8 10.2299 17.56 9.44992C17.32 8.64992 16.91 7.93992 16.33 7.31992C15.75 6.67992 14.97 6.17992 13.99 5.81992C13.01 5.43992 11.78 5.24992 10.3 5.24992H4.42V18.7199Z"
     fill="#222222"
     id="path21" />
  <path
     d="M25.2285 21.7199V2.27992H36.7185C38.1585 2.27992 39.4085 2.48992 40.4685 2.90992C41.5285 3.30992 42.3485 3.93992 42.9285 4.79992C43.5085 5.63992 43.7985 6.71992 43.7985 8.03992C43.7985 8.91992 43.6485 9.67992 43.3485 10.3199C43.0485 10.9399 42.6285 11.4499 42.0885 11.8499C41.5485 12.2499 40.9185 12.5599 40.1985 12.7799C39.4985 12.9999 38.7485 13.1399 37.9485 13.1999L37.6485 12.9899C38.9285 13.0099 39.9885 13.1299 40.8285 13.3499C41.6685 13.5499 42.3085 13.9399 42.7485 14.5199C43.1885 15.0799 43.4085 15.9099 43.4085 17.0099V21.7199H40.0185V17.1899C40.0185 16.4299 39.8785 15.8399 39.5985 15.4199C39.3385 14.9799 38.8785 14.6799 38.2185 14.5199C37.5785 14.3399 36.6585 14.2499 35.4585 14.2499H28.6485V21.7199H25.2285ZM28.6485 11.4599H36.7185C37.9185 11.4599 38.8285 11.1599 39.4485 10.5599C40.0685 9.95992 40.3785 9.16992 40.3785 8.18992C40.3785 7.24992 40.0685 6.52992 39.4485 6.02992C38.8285 5.50992 37.9185 5.24992 36.7185 5.24992H28.6485V11.4599Z"
     fill="#222222"
     id="path23" />
  <path
     d="M48.5329 2.27992H51.9529V21.7199H48.5329V2.27992Z"
     fill="#222222"
     id="path25" />
  <path
     d="M63.5214 21.7199L55.4514 2.27992H59.1714L66.1014 19.6499H64.9914L71.8914 2.27992H75.5514L67.5714 21.7199H63.5214Z"
     fill="#222222"
     id="path27" />
  <path
     d="M87.8477 22.0799C85.5677 22.0799 83.5777 21.6699 81.8777 20.8499C80.1977 20.0299 78.8877 18.8699 77.9477 17.3699C77.0277 15.8699 76.5677 14.0799 76.5677 11.9999C76.5677 9.91992 77.0277 8.12992 77.9477 6.62992C78.8877 5.10992 80.1977 3.94992 81.8777 3.14992C83.5777 2.32992 85.5677 1.91992 87.8477 1.91992C90.1477 1.91992 92.1377 2.32992 93.8177 3.14992C95.4977 3.94992 96.7977 5.10992 97.7177 6.62992C98.6577 8.12992 99.1277 9.91992 99.1277 11.9999C99.1277 14.0799 98.6577 15.8699 97.7177 17.3699C96.7977 18.8699 95.4977 20.0299 93.8177 20.8499C92.1377 21.6699 90.1477 22.0799 87.8477 22.0799ZM87.8477 19.0799C89.3677 19.0799 90.7077 18.8199 91.8677 18.2999C93.0277 17.7799 93.9377 16.9999 94.5977 15.9599C95.2777 14.8999 95.6177 13.5799 95.6177 11.9999C95.6177 10.4399 95.2777 9.13992 94.5977 8.09992C93.9377 7.03992 93.0277 6.24992 91.8677 5.72992C90.7077 5.18992 89.3677 4.91992 87.8477 4.91992C86.3477 4.91992 85.0077 5.18992 83.8277 5.72992C82.6477 6.24992 81.7177 7.03992 81.0377 8.09992C80.3577 9.13992 80.0177 10.4399 80.0177 11.9999C80.0177 13.5799 80.3577 14.8999 81.0377 15.9599C81.7177 16.9999 82.6477 17.7799 83.8277 18.2999C85.0077 18.8199 86.3477 19.0799 87.8477 19.0799Z"
     fill="#222222"
     id="path29" />
  <path
     d="M115.701 2.27992H119.751L111.291 12.8699L111.201 12.9599L104.721 21.7199H100.641L109.311 10.5599L109.401 10.4999L115.701 2.27992ZM105.021 2.27992L111.171 10.5299L111.201 10.5899L119.811 21.7199H115.491L109.161 12.8699L109.101 12.8099L100.941 2.27992H105.021Z"
     fill="#222222"
     id="path31" />
  <path
     d="M126.764 13.4399V18.7799H140.414V21.7199H123.344V2.27992H140.384V5.21992H126.764V10.6199H137.924V13.4399H126.764Z"
     fill="#222222"
     id="path33" />
  <path
     d="M148.065 18.4799V21.7199H144.075V18.4799H148.065Z"
     fill="#222222"
     id="path35" />
  <path
     d="M10.33 2.27992C12.43 2.27992 14.19 2.53992 15.61 3.05992C17.03 3.57992 18.16 4.28992 19 5.18992C19.84 6.06992 20.44 7.08992 20.8 8.24992C21.18 9.40992 21.37 10.6299 21.37 11.9099C21.37 13.2099 21.17 14.4499 20.77 15.6299C20.37 16.8099 19.73 17.8599 18.85 18.7799C17.99 19.6799 16.86 20.3999 15.46 20.9399C14.06 21.4599 12.35 21.7199 10.33 21.7199H1V2.27992H10.33ZM4.42 18.7199H10.3C11.78 18.7199 13.01 18.5299 13.99 18.1499C14.97 17.7699 15.75 17.2599 16.33 16.6199C16.91 15.9599 17.32 15.2299 17.56 14.4299C17.8 13.6099 17.92 12.7699 17.92 11.9099C17.92 11.0499 17.8 10.2299 17.56 9.44992C17.32 8.64992 16.91 7.93992 16.33 7.31992C15.75 6.67992 14.97 6.17992 13.99 5.81992C13.01 5.43992 11.78 5.24992 10.3 5.24992H4.42V18.7199Z"
     stroke="#222222"
     stroke-width="2"
     mask="url(#path-1-outside-1_78_204)"
     id="path37"
     style="fill:#2b0000" />
  <path
     d="M25.2285 21.7199V2.27992H36.7185C38.1585 2.27992 39.4085 2.48992 40.4685 2.90992C41.5285 3.30992 42.3485 3.93992 42.9285 4.79992C43.5085 5.63992 43.7985 6.71992 43.7985 8.03992C43.7985 8.91992 43.6485 9.67992 43.3485 10.3199C43.0485 10.9399 42.6285 11.4499 42.0885 11.8499C41.5485 12.2499 40.9185 12.5599 40.1985 12.7799C39.4985 12.9999 38.7485 13.1399 37.9485 13.1999L37.6485 12.9899C38.9285 13.0099 39.9885 13.1299 40.8285 13.3499C41.6685 13.5499 42.3085 13.9399 42.7485 14.5199C43.1885 15.0799 43.4085 15.9099 43.4085 17.0099V21.7199H40.0185V17.1899C40.0185 16.4299 39.8785 15.8399 39.5985 15.4199C39.3385 14.9799 38.8785 14.6799 38.2185 14.5199C37.5785 14.3399 36.6585 14.2499 35.4585 14.2499H28.6485V21.7199H25.2285ZM28.6485 11.4599H36.7185C37.9185 11.4599 38.8285 11.1599 39.4485 10.5599C40.0685 9.95992 40.3785 9.16992 40.3785 8.18992C40.3785 7.24992 40.0685 6.52992 39.4485 6.02992C38.8285 5.50992 37.9185 5.24992 36.7185 5.24992H28.6485V11.4599Z"
     stroke="#222222"
     stroke-width="2"
     mask="url(#path-1-outside-1_78_204)"
     id="path39" />
  <path
     d="M48.5329 2.27992H51.9529V21.7199H48.5329V2.27992Z"
     stroke="#222222"
     stroke-width="2"
     mask="url(#path-1-outside-1_78_204)"
     id="path41" />
  <path
     d="M63.5214 21.7199L55.4514 2.27992H59.1714L66.1014 19.6499H64.9914L71.8914 2.27992H75.5514L67.5714 21.7199H63.5214Z"
     stroke="#222222"
     stroke-width="2"
     mask="url(#path-1-outside-1_78_204)"
     id="path43" />
  <path
     d="M87.8477 22.0799C85.5677 22.0799 83.5777 21.6699 81.8777 20.8499C80.1977 20.0299 78.8877 18.8699 77.9477 17.3699C77.0277 15.8699 76.5677 14.0799 76.5677 11.9999C76.5677 9.91992 77.0277 8.12992 77.9477 6.62992C78.8877 5.10992 80.1977 3.94992 81.8777 3.14992C83.5777 2.32992 85.5677 1.91992 87.8477 1.91992C90.1477 1.91992 92.1377 2.32992 93.8177 3.14992C95.4977 3.94992 96.7977 5.10992 97.7177 6.62992C98.6577 8.12992 99.1277 9.91992 99.1277 11.9999C99.1277 14.0799 98.6577 15.8699 97.7177 17.3699C96.7977 18.8699 95.4977 20.0299 93.8177 20.8499C92.1377 21.6699 90.1477 22.0799 87.8477 22.0799ZM87.8477 19.0799C89.3677 19.0799 90.7077 18.8199 91.8677 18.2999C93.0277 17.7799 93.9377 16.9999 94.5977 15.9599C95.2777 14.8999 95.6177 13.5799 95.6177 11.9999C95.6177 10.4399 95.2777 9.13992 94.5977 8.09992C93.9377 7.03992 93.0277 6.24992 91.8677 5.72992C90.7077 5.18992 89.3677 4.91992 87.8477 4.91992C86.3477 4.91992 85.0077 5.18992 83.8277 5.72992C82.6477 6.24992 81.7177 7.03992 81.0377 8.09992C80.3577 9.13992 80.0177 10.4399 80.0177 11.9999C80.0177 13.5799 80.3577 14.8999 81.0377 15.9599C81.7177 16.9999 82.6477 17.7799 83.8277 18.2999C85.0077 18.8199 86.3477 19.0799 87.8477 19.0799Z"
     stroke="#222222"
     stroke-width="2"
     mask="url(#path-1-outside-1_78_204)"
     id="path45" />
  <path
     d="M115.701 2.27992H119.751L111.291 12.8699L111.201 12.9599L104.721 21.7199H100.641L109.311 10.5599L109.401 10.4999L115.701 2.27992ZM105.021 2.27992L111.171 10.5299L111.201 10.5899L119.811 21.7199H115.491L109.161 12.8699L109.101 12.8099L100.941 2.27992H105.021Z"
     stroke="#222222"
     stroke-width="2"
     mask="url(#path-1-outside-1_78_204)"
     id="path47" />
  <path
     d="M126.764 13.4399V18.7799H140.414V21.7199H123.344V2.27992H140.384V5.21992H126.764V10.6199H137.924V13.4399H126.764Z"
     stroke="#222222"
     stroke-width="2"
     mask="url(#path-1-outside-1_78_204)"
     id="path49" />
  <path
     d="M148.065 18.4799V21.7199H144.075V18.4799H148.065Z"
     stroke="#222222"
     stroke-width="2"
     mask="url(#path-1-outside-1_78_204)"
     id="path51" />
  <path
     style="fill:#f1c40f;fill-opacity:1;stroke:#ffffff;stroke-width:0.11194;stroke-opacity:1"
     d="M 0.05597015,11.977612 V 1.3432836 H 5.8253075 c 3.3622739,0 6.2185335,0.050088 6.8459885,0.1200537 4.804625,0.5357475 7.994102,2.9656525 9.15012,6.9710239 1.02951,3.5670518 0.385624,7.5585198 -1.646017,10.2036988 -1.560202,2.031367 -4.162258,3.427525 -7.190324,3.85804 -0.44078,0.06267 -3.4402991,0.112376 -6.8563437,0.113623 l -6.07276115,0.0022 z M 6.412137,2.3507463 c 6.855834,0 7.894103,0.125717 10.155027,1.2296044 1.240714,0.6057739 1.899934,1.108387 2.738767,2.0881353 1.922818,2.2458305 2.538448,6.342759 1.458287,9.704677 -0.455435,1.417503 -1.012707,2.318528 -2.126158,3.437673 -1.680069,1.68866 -3.762125,2.540736 -6.828359,2.794491 l -1.175373,0.09727 1.287314,-0.0445 c 3.80474,-0.131513 6.985688,-1.989695 8.452274,-4.937478 0.884676,-1.778167 1.249081,-4.41392 0.911101,-6.590026 C 20.933437,7.8669304 20.266215,6.4429587 18.919563,5.0822999 17.619003,3.7682132 16.246397,3.0612166 13.992537,2.5445071 13.057579,2.3301628 12.552062,2.3102919 6.9682836,2.2683969 l -6.01679106,-0.045144 0.0273588,9.7745681 0.0273588,9.774567 0.02923,-9.710821 0.02923,-9.7108209 z M 11.77929,18.685525 c 3.216521,-0.358664 5.207888,-1.883024 5.911388,-4.525077 0.456219,-1.713369 0.290486,-4.053413 -0.390084,-5.5077592 C 16.400107,6.7283926 14.251722,5.4360851 11.753731,5.3161122 l -0.895522,-0.04301 0.893586,0.1029951 c 3.792003,0.4370675 5.890943,2.5456509 6.074454,6.1023607 0.153082,2.966994 -1.026764,5.247837 -3.267856,6.317315 -1.566242,0.747432 -2.091969,0.819618 -6.3587661,0.873106 l -3.7779851,0.04736 V 11.990433 5.2646274 l 3.1903401,-0.032323 3.1903401,-0.032323 -3.2183251,0.00262 -3.2183253,0.00262 -0.029042,6.6604486 c -0.015973,3.663246 -0.00496,6.723413 0.024472,6.800372 0.069145,0.180798 5.8356694,0.195941 7.4181884,0.01948 z m 0.0045,-1.002343 C 13.063948,17.522663 14.021041,17.2029 14.82176,16.6682 16.131526,15.793573 16.809761,14.426164 16.926424,12.424932 17.082834,9.7424342 16.162607,7.8691291 14.237075,6.9501571 12.955206,6.3383774 12.323537,6.2522983 8.6473881,6.1884371 L 5.3171642,6.130585 v 5.833961 5.833961 h 2.773459 c 1.5254025,0 3.1873418,-0.0519 3.6931988,-0.115325 z"
     id="path3424" />
  <path
     style="fill:#f1c40f;fill-opacity:1;stroke:#ffffff;stroke-width:0.11194;stroke-opacity:1"
     d="M 24.235075,11.97162 V 1.3313001 l 7.248134,0.038331 c 7.091348,0.037502 7.267506,0.043723 8.143657,0.2876222 3.354455,0.9337979 5.088635,3.0961989 5.089685,6.3464781 5.6e-4,1.8222088 -0.495708,3.0566876 -1.698872,4.2257466 -0.427702,0.415578 -0.723492,0.755597 -0.657311,0.755597 0.18725,0 1.020033,0.793631 1.302781,1.241533 0.581682,0.921443 0.643868,1.369371 0.694038,4.999138 l 0.0468,3.386194 h -2.629966 -2.629967 l -0.04047,-3.106343 c -0.0345,-2.648337 -0.06828,-3.157659 -0.229065,-3.454382 -0.385437,-0.711302 -1.176937,-0.827334 -5.643535,-0.827334 h -3.622781 v 3.694029 3.69403 h -2.686567 -2.686567 z m 7.360692,-9.6194032 c 5.839802,0.00135 6.43659,0.018926 7.401114,0.2179453 3.141934,0.6483046 4.719085,2.4772214 4.714477,5.4670641 -0.0031,2.0069608 -0.767582,3.3224198 -2.442282,4.2024508 -0.411967,0.216482 -1.090338,0.479338 -1.507491,0.584123 -0.417153,0.104786 -0.740232,0.208746 -0.717955,0.231024 0.02228,0.02228 0.479195,0.117005 1.015374,0.210507 1.180908,0.205933 1.882117,0.519735 2.435439,1.089895 0.728128,0.750287 0.79939,1.110741 0.879915,4.450744 l 0.07152,2.966418 0.02146,-2.582053 c 0.02166,-2.605941 -0.07069,-3.602548 -0.393287,-4.244047 -0.240179,-0.477607 -0.803544,-1.049719 -1.271067,-1.290804 -0.471449,-0.24311 -1.628075,-0.556391 -2.080338,-0.563477 -0.222915,-0.0035 -0.08074,-0.08243 0.469745,-0.260804 1.696666,-0.549779 2.825735,-1.482594 3.30311,-2.728965 0.304901,-0.7960596 0.41833,-2.5848071 0.22344,-3.5235876 C 43.398947,5.03723 42.399185,3.75757 40.995969,3.0933378 39.306594,2.2936482 39.48394,2.3098233 31.93097,2.2665522 l -6.800373,-0.038959 0.02736,9.7723968 0.02736,9.772398 0.02923,-9.710821 0.02923,-9.7108203 z m 1.194402,11.9761412 c 4.368406,0 5.413393,0.09515 6.168169,0.561626 0.51406,0.317707 0.823456,0.858585 0.937461,1.638844 l 0.09556,0.654008 0.01365,-0.509738 c 0.0092,-0.344577 -0.07956,-0.696779 -0.274017,-1.087009 -0.237838,-0.47728 -0.388108,-0.625805 -0.867537,-0.857476 -0.911647,-0.440526 -1.752419,-0.510445 -6.148901,-0.51135 l -4.113806,-8.45e-4 0.02642,3.777985 0.02642,3.777985 0.03106,-3.722015 0.03106,-3.722015 z m 5.903152,-3.219042 C 39.876126,10.526774 40.379819,9.691384 40.397074,8.2835821 40.409665,7.256342 40.245106,6.7567281 39.714076,6.2099434 39.196307,5.6768134 38.495739,5.3667345 37.687492,5.312955 L 37.052239,5.270686 37.6424,5.365955 c 0.865829,0.1397694 1.775515,0.6241047 2.154289,1.1469886 0.913224,1.2606671 0.551015,3.3656607 -0.732173,4.2550684 -0.859234,0.595555 -1.36643,0.649898 -6.065646,0.649898 H 28.712687 V 8.3409147 5.2639189 l 4.169776,-0.030752 4.169776,-0.030752 -4.225746,-0.026581 -4.225747,-0.026581 V 8.3462467 11.54324 l 4.676178,-0.03468 4.676177,-0.03468 z M 38.33522,10.186567 C 38.974509,9.8283253 39.313335,9.3197331 39.405814,8.5795577 39.543479,7.4777207 39.20673,6.8292336 38.282054,6.4155035 37.8857,6.2381619 37.37598,6.2115909 33.722015,6.177795 L 29.608209,6.139746 v 2.1976361 2.1976359 l 4.113806,-0.0343 4.113806,-0.0343 z"
     id="path3426" />
  <path
     style="fill:#f1c40f;fill-opacity:1;stroke:#ffffff;stroke-width:0.11194;stroke-opacity:1"
     d="M 48.63806,12.033582 V 2.3507463 h 1.623134 1.623134 v 9.6828357 9.682836 H 50.261194 48.63806 Z"
     id="path3428" />
  <path
     style="fill:#f1c40f;fill-opacity:1;stroke:#ffffff;stroke-width:0.11194;stroke-opacity:1"
     d="M 47.630597,11.977612 V 1.3432836 h 2.630597 2.630597 V 11.977612 22.61194 h -2.630597 -2.630597 z m 4.365672,0.05597 V 2.238806 h -1.735075 -1.735075 v 9.794776 9.794776 h 1.735075 1.735075 z"
     id="path3430" />
  <path
     style="fill:#f1c40f;fill-opacity:1;stroke:#ffffff;stroke-width:0.11194;stroke-opacity:1"
     d="M 62.823767,22.473976 C 62.792875,22.395938 60.841541,17.697761 58.48747,12.033582 56.133399,6.369403 54.182519,1.6469216 54.152182,1.5391791 54.100684,1.356286 54.286761,1.3432836 56.955639,1.3432836 h 2.858617 l 2.826009,7.1082089 c 1.554305,3.9095145 2.858971,7.1082085 2.899259,7.1082085 0.04029,0 1.325114,-3.160914 2.855171,-7.0242532 1.530057,-3.8633396 2.81443,-7.0629179 2.854161,-7.1101741 0.03973,-0.047256 1.332574,-0.072443 2.872985,-0.05597 l 2.800746,0.02995 -4.341007,10.5783583 -4.341006,10.578358 -2.680319,0.02995 c -2.082194,0.02326 -2.692854,-0.0017 -2.736488,-0.11194 z M 59.608268,12.124108 C 57.440155,6.9026768 55.641081,2.5676306 55.610325,2.4906716 55.566992,2.3822401 55.956545,2.3507463 57.341086,2.3507463 h 1.786681 l 3.170157,7.9477607 c 1.743586,4.371269 3.20282,7.947762 3.242741,7.947762 0.08721,0 -0.05688,0.354115 3.518714,-8.6473884 l 2.87912,-7.2481343 h 1.726645 c 0.949656,0 1.726647,0.03247 1.726647,0.072155 0,0.039686 -1.76306,4.3680684 -3.91791,9.6186287 -2.154851,5.250561 -3.91638,9.587961 -3.914507,9.638666 0.0019,0.05071 0.04764,0.01663 0.10171,-0.07572 0.0698,-0.11922 7.357447,-17.8034343 7.922911,-19.225747 C 75.627181,2.2701026 75.214742,2.238806 73.74,2.238806 h -1.899624 l -1.990159,5.0093283 c -1.094588,2.7551307 -2.496102,6.2812497 -3.114476,7.8358207 -0.618375,1.554571 -1.156179,2.826493 -1.195119,2.826493 -0.03894,0 -1.473308,-3.52612 -3.187481,-7.835821 L 59.236463,2.238806 h -1.935165 -1.935165 l 0.615634,1.4832089 c 0.338599,0.815765 2.15732,5.1987121 4.041603,9.7398831 1.884283,4.54117 3.448684,8.233959 3.476446,8.206196 0.02776,-0.02776 -1.723435,-4.322555 -3.891548,-9.543986 z"
     id="path3432" />
  <path
     style="fill:#f1c40f;fill-opacity:1;stroke:#ffffff;stroke-width:0.11194;stroke-opacity:1"
     d="M 85.997186,22.936579 C 84.842105,22.808725 83.194271,22.407196 82.235717,22.020019 80.344349,21.256061 78.39098,19.699062 77.339378,18.117228 75.362896,15.144176 75.066814,10.559702 76.633121,7.1816955 78.46138,3.2387417 82.483999,1.0074627 87.764218,1.0074627 c 0.820583,0 1.886007,0.053686 2.367607,0.119302 4.946359,0.6739213 8.384993,3.4916849 9.575714,7.8467471 0.226641,0.8289422 0.254302,1.1770822 0.24758,3.1160402 -0.0071,2.039034 -0.0274,2.247645 -0.308588,3.166603 -1.070786,3.49943 -3.472805,5.906829 -7.0519,7.067696 -1.784746,0.578877 -4.567995,0.837367 -6.597445,0.612728 z m 4.74471,-1.057065 c 4.900303,-0.905764 8.124773,-4.286446 8.323303,-8.726529 l 0.04505,-1.007463 -0.09526,0.966929 c -0.293552,2.979577 -1.725842,5.425524 -4.119649,7.035202 -3.302228,2.220528 -9.10526,2.498684 -12.964219,0.621411 -2.693903,-1.310507 -4.367764,-3.395791 -5.044962,-6.284977 -0.304046,-1.297172 -0.273943,-4.013916 0.05816,-5.2490124 1.225269,-4.5567799 5.217822,-7.2201492 10.823444,-7.2201492 2.533965,0 4.316257,0.3729421 6.150697,1.2870246 2.939634,1.4647887 4.846187,4.292871 5.056321,7.500289 0.0363,0.554104 0.101644,1.074922 0.145205,1.157373 0.101392,0.191916 0.0331,-0.911222 -0.123634,-1.9969254 C 98.643625,7.5192868 97.100787,5.1121668 95.028931,3.772768 93.021646,2.4751117 90.847597,1.9042991 87.909219,1.9034352 c -1.789142,-5.26e-4 -2.887444,0.1336841 -4.221311,0.5158353 -3.617096,1.0362927 -6.008687,3.4211287 -6.867748,6.8483494 -0.349559,1.3945641 -0.343632,4.2543091 0.01153,5.5644701 0.461585,1.702735 1.246171,3.086229 2.387487,4.209963 1.675992,1.650173 4.04349,2.694361 6.806939,3.002209 1.225663,0.136539 3.519279,0.05641 4.715777,-0.164748 z m -0.199887,-3.065505 c 1.410098,-0.366287 2.257616,-0.83974 3.212475,-1.794599 1.444414,-1.444414 1.97773,-3.006062 1.872497,-5.483015 C 95.540859,9.5092517 94.931387,8.0788296 93.616718,6.8183371 92.571016,5.8157278 90.720682,5.0626438 89.104478,4.9818602 l -0.895523,-0.044761 0.783582,0.093928 c 4.185729,0.5017448 6.54462,3.0256903 6.54462,7.0025548 0,2.527755 -0.921752,4.4234 -2.743265,5.641702 -2.424541,1.621632 -6.467072,1.794554 -9.245644,0.395487 -1.078727,-0.543161 -2.270885,-1.722218 -2.765339,-2.73495 -0.665219,-1.362494 -0.874713,-3.409619 -0.521223,-5.093284 0.603777,-2.8757756 3.016444,-4.8390604 6.382042,-5.1933249 0.826332,-0.08698 0.847248,-0.095121 0.277914,-0.1081648 -0.841636,-0.019283 -2.340776,0.3580825 -3.355487,0.8446467 -1.128531,0.541142 -2.39081,1.7861776 -2.901814,2.862173 -0.924682,1.947057 -0.91376,4.87942 0.02532,6.797674 0.450826,0.9209 1.413319,1.952575 2.328984,2.496385 0.77942,0.462896 2.124192,0.922208 3.175385,1.084565 1.05155,0.162412 3.334181,0.05086 4.347979,-0.212482 z m -0.206188,-0.966101 c 2.014972,-0.546479 3.365457,-1.728278 3.990104,-3.491707 0.293758,-0.829303 0.40647,-2.865322 0.213544,-3.85744 -0.426832,-2.1949711 -1.958166,-3.7274433 -4.355492,-4.3587292 -1.221271,-0.3215961 -3.424386,-0.318486 -4.661589,0.00658 -2.482094,0.6521527 -3.997746,2.1420004 -4.427529,4.3521492 -0.190977,0.982096 -0.08015,3.028463 0.208053,3.84148 0.707435,1.995687 2.330305,3.209973 4.928154,3.687412 0.778964,0.14316 3.325271,0.03166 4.104755,-0.179745 z"
     id="path3434" />
  <path
     style="fill:#f1c40f;fill-opacity:1;stroke:#ffffff;stroke-width:0.11194;stroke-opacity:1"
     d="m 99.271848,21.968284 c 0.273692,-0.354012 2.140442,-2.758386 4.148332,-5.343055 2.00789,-2.584669 3.65029,-4.750714 3.64977,-4.813433 -5.1e-4,-0.06272 -1.78876,-2.418822 -3.97388,-5.2357839 -2.18511,-2.8169621 -3.972936,-5.1467195 -3.972936,-5.1772389 0,-0.030519 1.431606,-0.05549 3.181346,-0.05549 h 3.18135 l 2.37869,3.1932943 c 1.30829,1.7563119 2.41521,3.1793529 2.45984,3.1623135 0.0446,-0.01704 1.1001,-1.365869 2.34549,-2.9973989 1.24539,-1.6315298 2.34852,-3.055373 2.4514,-3.1640959 0.17156,-0.1813127 0.44928,-0.1952137 3.35464,-0.1679105 l 3.16761,0.029768 -4.14983,5.1913976 c -2.35537,2.9465515 -4.11707,5.2457807 -4.07406,5.3171637 0.0417,0.06917 1.86954,2.444514 4.06194,5.278537 2.1924,2.834024 4.02412,5.214154 4.07049,5.289179 0.0656,0.106107 -0.65695,0.135878 -3.25252,0.134016 l -3.33683,-0.0024 -2.34897,-3.299846 c -1.29194,-1.814915 -2.38453,-3.299845 -2.42799,-3.299845 -0.0435,0 -1.17765,1.48563 -2.52043,3.3014 l -2.44142,3.301402 -3.22483,8.37e-4 -3.224822,8.38e-4 z m 5.324382,-5.219 c 2.09778,-2.701139 3.79106,-4.948503 3.76285,-4.99414 -0.0282,-0.04564 -1.66661,-2.1677038 -3.64089,-4.7157025 l -3.58961,-4.6327251 1.93519,-0.030746 c 1.74651,-0.027748 1.94899,-0.011377 2.07664,0.1679105 1.39292,1.9563263 5.12323,6.836216 5.19287,6.7931738 0.0516,-0.031915 1.28707,-1.61689 2.74539,-3.5221674 l 2.65151,-3.4641407 h 1.93983 1.93983 l -3.75082,4.6872222 c -2.06294,2.5779722 -3.75081,4.7230502 -3.75081,4.7668402 0,0.120899 7.58643,9.911609 7.68011,9.911609 0.0313,0 0.0189,-0.06297 -0.0276,-0.139925 -0.0624,-0.103222 -6.82817,-8.890902 -7.43781,-9.660551 -0.0572,-0.07224 1.35584,-1.9290736 3.66128,-4.8111042 2.06495,-2.5814053 3.77846,-4.7322918 3.80779,-4.7797478 0.0293,-0.047456 -0.89415,-0.085901 -2.05216,-0.085434 l -2.10549,8.495e-4 -2.57054,3.3634885 c -1.4138,1.8499187 -2.6263,3.4097637 -2.69445,3.4663223 -0.0845,0.070108 -0.94074,-0.9987419 -2.69065,-3.358675 l -2.56675,-3.4615089 -2.09888,-0.00566 c -1.15438,-0.00311 -2.09888,0.021432 -2.09888,0.054548 0,0.033116 1.63713,2.1720659 3.63806,4.7532215 2.00093,2.5811556 3.63806,4.7246321 3.63806,4.7632801 0,0.05782 -6.91066,9.026344 -7.49076,9.721358 -0.0974,0.116737 -0.11872,0.192297 -0.0473,0.16791 0.0714,-0.02439 1.84622,-2.254363 3.94399,-4.955503 z m 2.86472,1.385044 c 1.45782,-1.970149 2.68882,-3.582089 2.73556,-3.582089 0.0467,0 1.23836,1.61194 2.64804,3.582089 1.40968,1.97015 2.60025,3.58209 2.6457,3.58209 0.0858,0 -4.84273,-6.965904 -5.16079,-7.294218 -0.16672,-0.172088 -0.38126,0.08675 -2.86677,3.458781 -1.47762,2.004633 -2.70336,3.687684 -2.72388,3.740112 -0.13097,0.334567 0.35731,-0.290864 2.72214,-3.486765 z"
     id="path3436" />
  <path
     style="fill:#f1c40f;fill-opacity:1;stroke:#ffffff;stroke-width:0.11194;stroke-opacity:1"
     d="M 123.35821,12.033582 V 2.3507463 h 8.50746 8.50746 V 3.75 5.1492537 h -6.82835 -6.82836 v 2.7425373 2.742537 h 5.59701 5.59702 v 1.399254 1.399254 h -5.59702 -5.59701 v 2.686567 2.686567 h 6.82836 6.82835 v 1.455224 1.455224 h -8.50746 -8.50746 z"
     id="path3438" />
  <path
     style="fill:#f1c40f;fill-opacity:1;stroke:#ffffff;stroke-width:0.11194;stroke-opacity:1"
     d="M 122.35075,11.977612 V 1.3432836 h 9.51492 9.51493 V 3.75 6.1567164 h -6.82836 -6.82836 V 7.891791 9.6268657 h 5.59702 5.59701 v 2.4067163 2.406717 h -5.59701 -5.59702 v 1.679104 1.679104 h 6.82836 6.82836 v 2.406717 2.406716 h -9.51493 -9.51492 z m 18.13432,8.283582 V 18.69403 h -6.82835 -6.82836 v -2.574627 -2.574627 h 5.59701 5.59702 v -1.511194 -1.511194 h -5.59702 -5.59701 V 7.891791 5.261194 h 6.82836 6.82835 V 3.75 2.238806 h -8.6194 -8.6194 v 9.794776 9.794776 h 8.6194 8.6194 z"
     id="path3440" />
  <path
     style="fill:#f1c40f;fill-opacity:1;stroke:#ffffff;stroke-width:0.11194;stroke-opacity:1"
     d="M 144.1791,20.149254 V 18.58209 h 1.90299 1.90298 v 1.567164 1.567164 h -1.90298 -1.90299 z"
     id="path3442" />
  <path
     style="fill:#f1c40f;fill-opacity:1;stroke:#ffffff;stroke-width:0.11194;stroke-opacity:1"
     d="m 143.17164,20.093284 v -2.518657 h 2.91045 2.91045 v 2.518657 2.518656 h -2.91045 -2.91045 z m 4.92537,0.05597 v -1.679105 h -2.01492 -2.01493 v 1.679105 1.679104 h 2.01493 2.01492 z"
     id="path3444" />
</svg>
